<svg class="site-logo" xmlns="http://www.w3.org/2000/svg" viewBox="0 0 210 29.711">
    <g transform="translate(-492.503 -1110.123)">
    <path d="M513.868,1129.776h-5.744a4.242,4.242,0,0,1-3.665-2.117l-.765-1.326-.766,1.326a4.242,4.242,0,0,1-3.664,2.117h-5.745a1.016,1.016,0,0,1-.879-1.523l10.175-17.622a1.015,1.015,0,0,1,.879-.508h0a1.013,1.013,0,0,1,.879.508l10.174,17.622a1.016,1.016,0,0,1-.879,1.523Zm-10.174-6.489h0a1.012,1.012,0,0,1,.879.508l1.645,2.849a2.206,2.206,0,0,0,1.906,1.1h3.984l-8.415-14.576-8.416,14.576h3.986a2.209,2.209,0,0,0,1.906-1.1l1.645-2.849A1.016,1.016,0,0,1,503.693,1123.288Z" fill="#fff"></path><path d="M531.341,1128.318a.857.857,0,0,1-.816.861,16.454,16.454,0,0,0-4.933.923,3.612,3.612,0,0,0-2.519,2.539,3.22,3.22,0,0,0,1.247,3.216,5.669,5.669,0,0,0,3.269.879,6.616,6.616,0,0,0,3.326-.773,5.34,5.34,0,0,0,2.054-2,5.118,5.118,0,0,0,.7-2.572v-6.751a4.426,4.426,0,0,0-1.131-3.236,4.608,4.608,0,0,0-3.425-1.152,5.966,5.966,0,0,0-3.726,1.041,6.8,6.8,0,0,0-1.563,1.622.87.87,0,0,1-1.02.356l-1.556-.557a.836.836,0,0,1-.474-1.215,7.079,7.079,0,0,1,1.82-2.181,8.487,8.487,0,0,1,3.093-1.548,12.956,12.956,0,0,1,3.314-.443,13.6,13.6,0,0,1,2.4.247,7.8,7.8,0,0,1,2.63,1.006,5.887,5.887,0,0,1,2.116,2.29,8.527,8.527,0,0,1,.844,4.107v13.37a.863.863,0,0,1-.863.863h-1.595a.863.863,0,0,1-.863-.863v-1.075a.286.286,0,0,0-.515-.173,8.3,8.3,0,0,1-.609.69,6.493,6.493,0,0,1-2.1,1.365,8.977,8.977,0,0,1-3.362.562,8.723,8.723,0,0,1-3.727-.78,6.336,6.336,0,0,1-2.658-2.264,5.979,5.979,0,0,1,1.832-8.393,17.268,17.268,0,0,1,7.91-1.961.866.866,0,0,1,.9.864Z" transform="translate(0.441 0.117)" fill="#fff"></path><path d="M596.262,1128.318a.857.857,0,0,1-.815.861,16.466,16.466,0,0,0-4.934.923,3.61,3.61,0,0,0-2.518,2.539,3.217,3.217,0,0,0,1.246,3.216,5.669,5.669,0,0,0,3.269.879,6.623,6.623,0,0,0,3.327-.773,5.354,5.354,0,0,0,2.054-2,5.127,5.127,0,0,0,.694-2.572v-6.751a4.422,4.422,0,0,0-1.131-3.236,4.607,4.607,0,0,0-3.425-1.152,5.966,5.966,0,0,0-3.726,1.041,6.821,6.821,0,0,0-1.563,1.622.869.869,0,0,1-1.019.356l-1.556-.557a.836.836,0,0,1-.475-1.215,7.066,7.066,0,0,1,1.821-2.181,8.471,8.471,0,0,1,3.093-1.548,12.942,12.942,0,0,1,3.313-.443,13.579,13.579,0,0,1,2.4.247,7.8,7.8,0,0,1,2.63,1.006,5.88,5.88,0,0,1,2.116,2.29,8.527,8.527,0,0,1,.845,4.107v13.37a.863.863,0,0,1-.863.863h-1.593a.864.864,0,0,1-.864-.863v-1.075a.286.286,0,0,0-.515-.173,8.107,8.107,0,0,1-.609.69,6.493,6.493,0,0,1-2.1,1.365,8.967,8.967,0,0,1-3.361.562,8.728,8.728,0,0,1-3.728-.78,6.342,6.342,0,0,1-2.658-2.264,5.979,5.979,0,0,1,1.832-8.393,17.27,17.27,0,0,1,7.91-1.961.866.866,0,0,1,.9.864Z" transform="translate(1.493 0.117)" fill="#fff"></path><path d="M566.9,1126.216v12.131a.864.864,0,0,1-.863.864h-1.593a.864.864,0,0,1-.863-.864v-19.876a.863.863,0,0,1,.863-.863h1.481a.863.863,0,0,1,.864.863v1.431a.285.285,0,0,0,.52.161,6.317,6.317,0,0,1,1.787-1.732,8.249,8.249,0,0,1,4.274-1,7.923,7.923,0,0,1,3.839.893,6.1,6.1,0,0,1,2.559,2.7,10.074,10.074,0,0,1,.914,4.564v12.863a.863.863,0,0,1-.863.864h-1.592a.864.864,0,0,1-.864-.864v-12.636a5.633,5.633,0,0,0-1.321-3.974,4.706,4.706,0,0,0-3.629-1.428,5.753,5.753,0,0,0-2.834.69,4.914,4.914,0,0,0-1.961,2.01,6.642,6.642,0,0,0-.718,3.207" transform="translate(1.152 0.117)" fill="#fff"></path><path d="M545.049,1126.216v12.131a.864.864,0,0,1-.863.864h-1.593a.863.863,0,0,1-.863-.864v-19.876a.863.863,0,0,1,.863-.863h1.481a.863.863,0,0,1,.864.863v1.431a.285.285,0,0,0,.521.161,6.3,6.3,0,0,1,1.786-1.732,8.249,8.249,0,0,1,4.274-1,7.923,7.923,0,0,1,3.839.893,6.1,6.1,0,0,1,2.559,2.7,10.075,10.075,0,0,1,.914,4.564v12.863a.863.863,0,0,1-.863.864h-1.593a.863.863,0,0,1-.863-.864v-12.636a5.633,5.633,0,0,0-1.321-3.974,4.706,4.706,0,0,0-3.629-1.428,5.753,5.753,0,0,0-2.834.69,4.915,4.915,0,0,0-1.961,2.01,6.643,6.643,0,0,0-.717,3.207" transform="translate(0.798 0.117)" fill="#fff"></path><path d="M609.97,1111.306v27.152a.864.864,0,0,1-.864.864h-1.592a.864.864,0,0,1-.863-.864v-27.077a.863.863,0,0,1,.863-.863h1.669a.788.788,0,0,1,.787.788" transform="translate(1.85 0.006)" fill="#fff"></path><path d="M614.949,1138.533v-19.951a.864.864,0,0,1,.863-.864h1.594a.863.863,0,0,1,.863.864v19.876a.863.863,0,0,1-.863.863h-1.669a.787.787,0,0,1-.789-.787m1.688-23.514a2.342,2.342,0,0,1-1.667-.66,2.163,2.163,0,0,1,0-3.179,2.431,2.431,0,0,1,3.334,0,2.162,2.162,0,0,1,0,3.179,2.342,2.342,0,0,1-1.668.66m51.192,24.753a2.34,2.34,0,0,1-1.668-.661,2.162,2.162,0,0,1,0-3.179,2.435,2.435,0,0,1,3.335,0,2.167,2.167,0,0,1,0,3.179,2.344,2.344,0,0,1-1.668.661" transform="translate(1.973 0.006)" fill="#fff"></path><path d="M637.937,1122.685l-1.431.4a.905.905,0,0,1-1-.432,6.076,6.076,0,0,0-.534-.822,4.133,4.133,0,0,0-1.469-1.176,5.319,5.319,0,0,0-2.377-.464,5.68,5.68,0,0,0-3.3.907,2.706,2.706,0,0,0-1.315,2.3,2.362,2.362,0,0,0,.9,1.955,7.532,7.532,0,0,0,2.812,1.2l3.207.786a8.887,8.887,0,0,1,4.317,2.145,5.056,5.056,0,0,1,1.421,3.706,5.518,5.518,0,0,1-1.061,3.319,7.153,7.153,0,0,1-2.961,2.306,10.8,10.8,0,0,1-4.415.844,9.736,9.736,0,0,1-5.472-1.434,6.2,6.2,0,0,1-2.531-3.394.78.78,0,0,1,.566-.992l1.6-.4a.869.869,0,0,1,1.014.533,4.086,4.086,0,0,0,1.471,1.887,5.667,5.667,0,0,0,3.3.873,6.178,6.178,0,0,0,3.692-.992,2.887,2.887,0,0,0,1.372-2.383,2.539,2.539,0,0,0-.788-1.891,5.062,5.062,0,0,0-2.421-1.147l-3.6-.844a8.5,8.5,0,0,1-4.352-2.186,5.236,5.236,0,0,1-1.385-3.719,5.319,5.319,0,0,1,1.033-3.234,6.934,6.934,0,0,1,2.826-2.209,9.9,9.9,0,0,1,4.072-.8,8.107,8.107,0,0,1,5.041,1.406,7.469,7.469,0,0,1,2.263,2.837.8.8,0,0,1-.5,1.114" transform="translate(2.11 0.117)" fill="#fff"></path><path d="M652.633,1139.661a10.1,10.1,0,0,1-5.38-1.385,9.134,9.134,0,0,1-3.472-3.883,13.108,13.108,0,0,1-1.217-5.815,13.384,13.384,0,0,1,1.217-5.856,9.519,9.519,0,0,1,3.4-3.967,9.133,9.133,0,0,1,5.112-1.427,10.219,10.219,0,0,1,3.333.563,8.305,8.305,0,0,1,2.995,1.82,8.819,8.819,0,0,1,2.153,3.327,14.157,14.157,0,0,1,.8,5.089v.545a.863.863,0,0,1-.863.863H649.058a.863.863,0,0,1-.863-.863v-1.142a.863.863,0,0,1,.863-.864h8.7a.429.429,0,0,0,.433-.444,6.95,6.95,0,0,0-.712-2.82,5.581,5.581,0,0,0-2.054-2.263,5.787,5.787,0,0,0-3.129-.83,5.939,5.939,0,0,0-3.425.979,6.5,6.5,0,0,0-2.215,2.537,7.446,7.446,0,0,0-.773,3.348v1.912a9.162,9.162,0,0,0,.851,4.142,5.994,5.994,0,0,0,2.37,2.574,6.926,6.926,0,0,0,3.53.88,7.129,7.129,0,0,0,2.37-.374,4.932,4.932,0,0,0,1.835-1.125,4.777,4.777,0,0,0,.905-1.228.909.909,0,0,1,1.006-.449l1.576.442a.838.838,0,0,1,.539,1.221,7.1,7.1,0,0,1-1.326,1.9,8.167,8.167,0,0,1-2.953,1.912,10.843,10.843,0,0,1-3.952.683" transform="translate(2.432 0.117)" fill="#fff"></path><path d="M684.778,1128.318a.857.857,0,0,1-.815.861,16.466,16.466,0,0,0-4.934.923,3.611,3.611,0,0,0-2.518,2.539,3.217,3.217,0,0,0,1.246,3.216,5.669,5.669,0,0,0,3.269.879,6.623,6.623,0,0,0,3.327-.773,5.354,5.354,0,0,0,2.054-2,5.127,5.127,0,0,0,.694-2.572v-6.751a4.422,4.422,0,0,0-1.131-3.236,4.607,4.607,0,0,0-3.425-1.152,5.965,5.965,0,0,0-3.726,1.041,6.82,6.82,0,0,0-1.563,1.622.869.869,0,0,1-1.019.356l-1.556-.557a.836.836,0,0,1-.475-1.215,7.066,7.066,0,0,1,1.821-2.181,8.471,8.471,0,0,1,3.093-1.548,12.942,12.942,0,0,1,3.313-.443,13.578,13.578,0,0,1,2.4.247,7.8,7.8,0,0,1,2.63,1.006,5.88,5.88,0,0,1,2.116,2.29,8.528,8.528,0,0,1,.844,4.107v13.37a.863.863,0,0,1-.863.863h-1.593a.864.864,0,0,1-.864-.863v-1.075a.286.286,0,0,0-.515-.173,8.089,8.089,0,0,1-.609.69,6.491,6.491,0,0,1-2.1,1.365,8.967,8.967,0,0,1-3.361.562,8.728,8.728,0,0,1-3.728-.78,6.342,6.342,0,0,1-2.658-2.264,5.979,5.979,0,0,1,1.832-8.393,17.271,17.271,0,0,1,7.91-1.961.866.866,0,0,1,.9.864Z" transform="translate(2.927 0.117)" fill="#fff"></path><path d="M695.167,1138.418v-19.951a.864.864,0,0,1,.863-.864h1.593a.864.864,0,0,1,.863.864v19.876a.863.863,0,0,1-.863.863h-1.669a.787.787,0,0,1-.788-.788" transform="translate(3.284 0.121)" fill="#fff"></path><path d="M696.866,1115.019a2.34,2.34,0,0,1-1.667-.66,2.162,2.162,0,0,1,0-3.179,2.431,2.431,0,0,1,3.334,0,2.163,2.163,0,0,1,0,3.179,2.343,2.343,0,0,1-1.668.66" transform="translate(3.274 0.006)" fill="#fff">
    </path>
    </g>
</svg>